<?xml version="1.0" encoding="utf-8"?>
<!-- Generator: Adobe Illustrator 21.1.0, SVG Export Plug-In . SVG Version: 6.00 Build 0)  -->
<svg xmlns="http://www.w3.org/2000/svg" xmlns:xlink="http://www.w3.org/1999/xlink" version="1.1" x="0px" y="0px" viewBox="0 0 64 64" style="enable-background:new 0 0 64 64;" xml:space="preserve">
<style type="text/css">
	.st0{fill:#C2CDE7;}
	.st1{fill:#ACB7D0;}
	.st2{fill:#D6DFF2;}
	.st3{fill:#C5E4FA;}
	.st4{fill:#8D6C9F;}
	.st5{fill:#E3F2FF;}
	.st6{fill:#72CAAF;}
	.st7{fill:#ED7899;}
	.st8{fill:#85CBF8;}
	.st9{fill:#BBDEF9;}
	.st10{fill:#F9E3AE;}
	.st11{fill:#97E0BB;}
	.st12{fill:#CDA1A7;}
	.st13{fill:#D3A9B0;}
	.st14{fill:#C4939C;}
	.st15{fill:#ACE3FF;}
	.st16{fill:#F3F3F3;}
	.st17{fill:#D2EDFF;}
	.st18{fill:#F6D397;}
	.st19{fill:#CED9ED;}
	.st20{fill:#FFF8F8;}
	.st21{fill:#DEF0FF;}
	.st22{fill:#FFFFFF;}
	.st23{fill:#E0678F;}
	.st24{fill:#F994B3;}
	.st25{fill:#F5C872;}
	.st26{fill:#F9DD8F;}
	.st27{fill:#FAEFDE;}
	.st28{fill:#FFEB9B;}
	.st29{fill:#F75F83;}
	.st30{fill:#DADCEC;}
	.st31{fill:#F6445C;}
	.st32{fill:#EFD8BE;}
	.st33{fill:#FFEFB8;}
	.st34{fill:#DCE5F5;}
	.st35{fill:#FEE8B6;}
	.st36{fill:#5DBC9D;}
	.st37{fill:#B5C4E0;}
	.st38{fill:#C7D0E5;}
	.st39{fill:#FFF6DF;}
	.st40{fill:#6FC6F0;}
	.st41{fill:#CFD9ED;}
	.st42{fill:#9FDDFF;}
	.st43{fill:#CED8ED;}
	.st44{fill:#B8C2DD;}
	.st45{fill:#BFD2DF;}
	.st46{fill:#97CBE8;}
	.st47{fill:#869DB1;}
	.st48{fill:#FFF4D2;}
	.st49{fill:#7C527C;}
	.st50{fill:#D5E0F3;}
	.st51{fill:#FFF7F0;}
	.st52{fill:#A0AECB;}
	.st53{fill:#DEB4BA;}
	.st54{fill:#AED3ED;}
	.st55{fill:#FADB6F;}
	.st56{fill:#9CB0C3;}
	.st57{fill:#D3E0E8;}
	.st58{fill:#DCE9F0;}
	.st59{fill:#FFAAA4;}
	.st60{fill:#96D7F9;}
	.st61{fill:#8B8E98;}
	.st62{fill:#FEDAA4;}
	.st63{fill:#EB9697;}
	.st64{fill:#A9A7AE;}
	.st65{fill:#A5BAC6;}
	.st66{fill:#98C77C;}
</style>
<g id="_x35_0_Air_Conditioner_Climete_Cooler_House_Interior_Environment">
</g>
<g id="_x34_9_Thermometer_Heater_Climate_Control_House_Home">
</g>
<g id="_x34_8_Plan_Blueprint_Apartment_Home_House_Flat_Interior">
</g>
<g id="_x34_7_Plant_Pot_Green_Interior_Home_House">
</g>
<g id="_x34_6_Washing_Machine_Laundry_Bathroom_Interior_Home_House">
</g>
<g id="_x34_5_Radiator_Heat_Climate_Warm_Interior_House_Home">
</g>
<g id="_x34_4_Toaster_Bread_Electronic_Device_Kitchen_House">
</g>
<g id="_x34_3_Lamp_LED_Light_Interior_Home_House">
</g>
<g id="_x34_2_Window_Glass_Interior_Exterior_House_Home">
</g>
<g id="_x34_1_Chair_Armchair_Lounge_Furniture_House_Interior">
</g>
<g id="_x34_0_Image_Photo_Instant_Polaroid_Frames_Gallery">
</g>
<g id="_x33_9_Polaroid_Photocamera_Vintage_Photo_Image_Instant">
</g>
<g id="_x33_8_Printer_Print_Paper_Photo_Ink_Color_Polygraphy">
</g>
<g id="_x33_7_Memory_Card_Stick_Data_Files_Flash_Drive">
</g>
<g id="_x33_6_Image_Photo_Gallery_Slideshow_Landscape">
</g>
<g id="_x33_5_Film_Tape_Photo_Frame_Image">
</g>
<g id="_x33_4_Film_Movie_Photo_Image_Slideshow_Projection_1_">
</g>
<g id="_x33_3_Photo_Photocamera_Lens_Image_Gallery_Shot">
</g>
<g id="_x33_2_Crop_Tool_Photo_Frame_Image">
</g>
<g id="_x33_1_Video_Camera_Photo_Movie_Film">
</g>
<g id="_x33_0_Radiator_Cooler_Heater_Pipes_Antifreeze">
</g>
<g id="_x32_9_Freshener_Spruce_Needles_Smell_Clean">
</g>
<g id="_x32_8_Jerrycan_Can_Gasoline_Fuel_Oil_Tank">
</g>
<g id="_x32_7_Brake_Disk_Car_Part_Automotive_Wheel">
</g>
<g id="_x32_6_Parking_Garage_Place_Car_Automotive_Space">
</g>
<g id="_x32_5_Drive_Car_Transmission_Selector_Gearbox_Shifter">
</g>
<g id="_x32_4_Car_Door_Automotive_Handle_Window">
</g>
<g id="_x32_3_Steering_Wheel_Car_Automotive_Helm_Rudder">
</g>
<g id="_x32_2_Battery_Electricity_Automotive_Charge">
</g>
<g id="_x32_1_Vehicle_Car_Truck_Automobile_Cargo">
</g>
<g id="_x32_0_Directory_Office_Folder_File_Paper">
</g>
<g id="_x31_9_Office_Home_Building_Work_House">
</g>
<g id="_x31_8_Aim_Circle_Arrow_Office_Bow">
</g>
<g id="_x31_7_Trash_Delete_Garbage_Basket_File_Waste">
</g>
<g id="_x31_6_Display_Chart_Graph_Computer_Equalizer">
</g>
<g id="_x31_5_Presentation_Graph_Keynote_Chart_Screen_Whiteboard_Diagram">
</g>
<g id="_x31_4_Mail_Stamp_Postmark_Address_Message">
</g>
<g id="_x31_3_Inbox_Box_Paper_Office_Mail_Incoming_Archive">
</g>
<g id="_x31_2_Office_Coffee_Cup_Tea_Hot_Drink">
</g>
<g id="_x31_1_Paper_Shredder_Office_Recycle_Destruction">
</g>
<g id="_x31_0_Bag_Shopping_Cart_Store_Sale_Shop">
</g>
<g id="_x30_9_Calculator_Numbers_Math_Finance_Plus_Multiplication">
	<g>
		<path class="st0" d="M52,57H14c-1.7,0-3-1.3-3-3V12c0-1.7,1.3-3,3-3h38c1.7,0,3,1.3,3,3v42C55,55.7,53.7,57,52,57z"/>
		<path class="st9" d="M55,25H11V12c0-1.7,1.3-3,3-3h38c1.7,0,3,1.3,3,3V25z"/>
		<polygon class="st21" points="24.2,25 36.8,9 52.8,9 40.2,25   "/>
		<polygon class="st21" points="17.2,25 29.8,9 32.8,9 20.2,25   "/>
		<polygon class="st21" points="12.3,25 25,9 26,9 13.3,25   "/>
		<rect x="41" y="35" class="st6" width="8" height="16"/>
		<rect x="29" y="35" class="st8" width="8" height="6"/>
		<rect x="29" y="45" class="st8" width="8" height="6"/>
		<rect x="17" y="45" class="st8" width="8" height="6"/>
		<rect x="17" y="35" class="st7" width="8" height="6"/>
		<rect x="8" y="20" class="st28" width="3" height="10"/>
		<rect x="55" y="20" class="st28" width="3" height="10"/>
		<g>
			<path class="st4" d="M57,19h-1v-8c0-1.7-1.3-3-3-3H13c-1.7,0-3,1.3-3,3v8H9c-1.1,0-2,0.9-2,2v8c0,1.1,0.9,2,2,2h1v24     c0,1.7,1.3,3,3,3h40c1.7,0,3-1.3,3-3V31h1c1.1,0,2-0.9,2-2v-8C59,19.8,58.1,19,57,19z M12,11c0-0.6,0.4-1,1-1h40c0.6,0,1,0.4,1,1     v10v3H12v-3V11z M9,29v-8l1,0v8H9z M54,55c0,0.6-0.4,1-1,1H13c-0.6,0-1-0.4-1-1V29v-3h42v3V55z M57,29h-1v-8l1,0V29z"/>
			<path class="st4" d="M24,34h-6c-1.1,0-2,0.9-2,2v4c0,1.1,0.9,2,2,2h6c1.1,0,2-0.9,2-2v-4C26,34.9,25.1,34,24,34z M24,40h-6l0-4h0     h6V40z"/>
			<path class="st4" d="M36,34h-6c-1.1,0-2,0.9-2,2v4c0,1.1,0.9,2,2,2h6c1.1,0,2-0.9,2-2v-4C38,34.9,37.1,34,36,34z M36,40h-6l0-4h0     h6V40z"/>
			<path class="st4" d="M36,44h-6c-1.1,0-2,0.9-2,2v4c0,1.1,0.9,2,2,2h6c1.1,0,2-0.9,2-2v-4C38,44.9,37.1,44,36,44z M36,50h-6l0-4h0     h6V50z"/>
			<path class="st4" d="M48,34h-6c-1.1,0-2,0.9-2,2v14c0,1.1,0.9,2,2,2h6c1.1,0,2-0.9,2-2V36C50,34.9,49.1,34,48,34z M48,50h-6l0-14     h0h6V50z"/>
			<path class="st4" d="M24,44h-6c-1.1,0-2,0.9-2,2v4c0,1.1,0.9,2,2,2h6c1.1,0,2-0.9,2-2v-4C26,44.9,25.1,44,24,44z M24,50h-6l0-4h0     h6V50z"/>
			<path class="st4" d="M18,32c0.6,0,1-0.4,1-1v-2c0-0.6-0.4-1-1-1s-1,0.4-1,1v2C17,31.6,17.4,32,18,32z"/>
			<path class="st4" d="M23,32c0.6,0,1-0.4,1-1v-2c0-0.6-0.4-1-1-1s-1,0.4-1,1v2C22,31.6,22.4,32,23,32z"/>
			<path class="st4" d="M29,31v-2c0-0.6-0.4-1-1-1s-1,0.4-1,1v2c0,0.6,0.4,1,1,1S29,31.6,29,31z"/>
			<path class="st4" d="M33,32c0.6,0,1-0.4,1-1v-2c0-0.6-0.4-1-1-1s-1,0.4-1,1v2C32,31.6,32.4,32,33,32z"/>
			<path class="st4" d="M38,28c-0.6,0-1,0.4-1,1v2c0,0.6,0.4,1,1,1s1-0.4,1-1v-2C39,28.4,38.6,28,38,28z"/>
			<path class="st4" d="M43,32c0.6,0,1-0.4,1-1v-2c0-0.6-0.4-1-1-1s-1,0.4-1,1v2C42,31.6,42.4,32,43,32z"/>
			<path class="st4" d="M48,32c0.6,0,1-0.4,1-1v-2c0-0.6-0.4-1-1-1s-1,0.4-1,1v2C47,31.6,47.4,32,48,32z"/>
			<path class="st4" d="M33.5,15.9l0.5-0.3V20c0,0.6,0.4,1,1,1s1-0.4,1-1v-6c0-0.3-0.2-0.7-0.5-0.8c-0.3-0.2-0.7-0.2-1,0l-2,1     c-0.5,0.2-0.7,0.8-0.5,1.3C32.4,15.9,33,16.1,33.5,15.9z"/>
			<path class="st4" d="M46.5,15.9l0.5-0.3V20c0,0.6,0.4,1,1,1s1-0.4,1-1v-6c0-0.3-0.2-0.7-0.5-0.8c-0.3-0.2-0.7-0.2-1,0l-2,1     c-0.5,0.2-0.7,0.8-0.5,1.3C45.4,15.9,46,16.1,46.5,15.9z"/>
			<path class="st4" d="M39,18h1v1c0,0.6,0.4,1,1,1s1-0.4,1-1v-1h1c0.6,0,1-0.4,1-1s-0.4-1-1-1h-1v-1c0-0.6-0.4-1-1-1s-1,0.4-1,1v1     h-1c-0.6,0-1,0.4-1,1S38.4,18,39,18z"/>
		</g>
	</g>
</g>
<g id="_x30_8_Present_Sale_Discount_Box_Gift">
</g>
<g id="_x30_7_Wallet_Money_Cash_Dollar_Deposit">
</g>
<g id="_x30_6_Coupon_Ticket_Percent_Sale_Discount">
</g>
<g id="_x30_5_Safe_Money_Deposit_Bank_Account">
</g>
<g id="_x30_4_Shopping_Cart_Bag_Store_Shop_Commerce">
</g>
<g id="_x30_3_Visa_Mastercard_Credit_Card_Plastic_Transaction_Money">
</g>
<g id="_x30_2_Bill_Payment_Money_Finance_Paper_Dollar_Currency">
</g>
<g id="_x30_1_Money_Dollar_Banknote_Bank_Currency_Finance">
</g>
</svg>
